<svg width="266" height="212" viewBox="0 0 266 212" fill="none" xmlns="http://www.w3.org/2000/svg">
<path d="M0.817187 70.331L66.1848 69.9312L66.0968 210.605L0.729153 211.005L0.817187 70.331Z" fill="#E6E5E5" stroke="black"/>
<path d="M66.0958 205.745L0.973264 206.143L55.8852 69.9941L66.1807 69.9311L66.0958 205.745Z" fill="#CCCBCA" stroke="black"/>
<path d="M199.554 69.6334L264.922 69.2335L264.834 209.908L199.466 210.307L199.554 69.6334Z" fill="#E6E5E5" stroke="black"/>
<path d="M67.0467 1.71368L198.721 0.907962L198.59 209.966L66.9162 210.772L67.0467 1.71368Z" fill="#F0EFEF" stroke="black"/>
<path d="M209.85 69.5703L264.592 205.048L199.469 205.447L199.554 69.6333L209.85 69.5703Z" fill="#CCCBCA" stroke="black"/>
<path d="M89.134 21.0898L110.246 20.9606L110.234 39.4971L89.1224 39.6263L89.134 21.0898ZM122.229 20.8873L143.341 20.7581L143.329 39.2946L122.218 39.4238L122.229 20.8873ZM155.469 20.6839L176.581 20.5547L176.569 39.0912L155.457 39.2204L155.469 20.6839ZM89.1156 50.4584L110.227 50.3293L110.216 68.8658L89.1041 68.995L89.1156 50.4584ZM122.211 50.2559L143.322 50.1268L143.311 68.6633L122.199 68.7925L122.211 50.2559ZM155.451 50.0525L176.562 49.9234L176.551 68.4599L155.439 68.5891L155.451 50.0525ZM89.0974 79.6994L110.209 79.5702L110.197 98.1068L89.0858 98.236L89.0974 79.6994ZM122.193 79.4969L143.304 79.3677L143.293 97.9043L122.181 98.0335L122.193 79.4969ZM155.432 79.2935L176.544 79.1643L176.532 97.7009L155.421 97.8301L155.432 79.2935ZM89.079 109.068L110.191 108.939L110.179 127.475L89.0675 127.605L89.079 109.068ZM122.174 108.866L143.286 108.736L143.274 127.273L122.163 127.402L122.174 108.866ZM155.414 108.662L176.526 108.533L176.514 127.07L155.402 127.199L155.414 108.662ZM89.0608 138.309L110.172 138.18L110.161 156.716L89.0492 156.846L89.0608 138.309ZM122.156 138.107L143.268 137.977L143.256 156.514L122.144 156.643L122.156 138.107ZM155.396 137.903L176.507 137.774L176.496 156.311L155.384 156.44L155.396 137.903Z" fill="#84CEDD" stroke="black"/>
<path d="M105.764 172.642L160.076 172.311L160.053 210.307L105.741 210.638L105.764 172.642Z" fill="#69BECE" stroke="black"/>
<path d="M237.768 147.678L237.768 147.678L237.772 147.678C252.724 147.586 264.853 158.187 264.845 171.371C264.837 184.43 252.836 195.302 237.743 195.394C222.79 195.486 210.661 184.885 210.669 171.701C210.677 158.513 222.68 147.644 237.768 147.678Z" fill="#70B888" stroke="black"/>
<path d="M27.8923 196.131C12.9401 196.222 0.810867 185.622 0.819005 172.438C0.827143 159.254 12.9696 148.506 27.9218 148.414C42.8739 148.323 55.0032 158.924 54.9951 172.107C54.987 185.167 42.9853 196.039 27.8923 196.131Z" fill="#70B888" stroke="black"/>
</svg>
