<svg width="170" height="170" viewBox="0 0 170 170" fill="none" xmlns="http://www.w3.org/2000/svg">
<g clip-path="url(#clip0_69_80)">
<path d="M169.988 85.0004C169.988 101.812 165.003 118.246 155.663 132.224C146.324 146.202 133.05 157.097 117.519 163.531C101.988 169.964 84.8989 171.647 68.4117 168.368C51.9245 165.088 36.78 156.992 24.8934 145.104C13.0068 133.217 4.91195 118.071 1.63254 101.583C-1.64688 85.0941 0.0364059 68.0034 6.46953 52.4716C12.9027 36.9398 23.7967 23.6646 37.774 14.3247C51.7513 4.98488 68.1841 -0.000168625 84.9944 4.27805e-09H85.0072C107.549 0.00113053 129.167 8.95687 145.106 24.8973C161.045 40.8377 170 62.4573 170.001 85.0004" fill="#007B3B"/>
<path d="M85.0068 7.7135C105.504 7.7152 125.161 15.8597 139.654 30.3555C154.147 44.8512 162.288 64.5108 162.287 85.0096C162.287 105.508 154.144 125.167 139.65 139.662C125.155 154.156 105.498 162.299 85.0004 162.299C64.5032 162.299 44.8454 154.156 30.3513 139.662C15.8573 125.167 7.71421 105.508 7.71336 85.0096C7.71251 64.5108 15.854 44.8512 30.3468 30.3555C44.8397 15.8597 64.4968 7.7152 84.994 7.7135H85.0068ZM85.0068 4.0473C66.4123 4.0945 48.4083 10.5822 34.0571 22.4069C19.706 34.2316 9.89391 50.663 6.28991 68.9063C2.68591 87.1497 5.51253 106.078 14.289 122.473C23.0655 138.867 37.2498 151.714 54.4293 158.83C71.6088 165.945 90.7226 166.889 108.52 161.501C126.317 156.113 141.698 144.726 152.047 129.276C162.396 113.827 167.073 95.2688 165.284 76.7591C163.495 58.2494 155.35 40.931 142.234 27.7497C127.054 12.5748 106.47 4.05028 85.0068 4.05071V4.0473Z" fill="white"/>
<path d="M82.335 109.796C81.9029 109.83 81.4687 109.764 81.0664 109.603C80.664 109.442 80.3042 109.19 80.0152 108.867C79.7142 108.378 79.7142 108.027 79.7142 106.071V104.591C79.7142 104.402 79.3886 104.378 79.2377 104.378H79.1993L79.3374 104.002H81.4065L81.2556 104.378C81.0553 104.378 80.7441 104.378 80.7441 104.703V107.212C80.7441 107.939 80.7441 109.168 82.2864 109.168C83.4279 109.168 83.9667 108.604 83.9667 107.387V104.591C83.9667 104.39 83.5532 104.39 83.5532 104.39L83.6913 104.014H85.2336L85.0955 104.39H84.9966C84.8585 104.39 84.6206 104.39 84.6206 104.716V107.224C84.6526 107.874 84.4731 108.517 84.1091 109.056C83.8795 109.283 83.6072 109.462 83.3079 109.582C83.0086 109.703 82.6883 109.763 82.3656 109.758" fill="white"/>
<path d="M91.0147 109.671C90.2372 108.805 89.7606 108.291 89.3948 107.914L88.8936 107.374L88.3164 106.735C87.9459 106.272 87.5253 105.851 87.0623 105.481V109.708H85.746L85.8969 109.344C86.0725 109.344 86.3607 109.344 86.3607 109.056V104.654C86.3607 104.403 86.0844 104.378 85.9719 104.378L86.0725 104.002H86.8875C88.5176 105.845 88.5176 105.845 88.5176 105.858C88.5176 105.87 90.261 107.714 90.712 108.19V104.026H92.0377L91.8996 104.402C91.7871 104.402 91.36 104.402 91.36 104.64V109.682H90.8484L91.0147 109.671Z" fill="white"/>
<path d="M93.3089 109.295H93.3941C93.5322 109.295 93.7582 109.295 93.7582 109.082V104.629C93.7582 104.403 93.4325 104.366 93.2466 104.366H93.1332L93.2586 103.99H95.1521L95.0139 104.366C94.8383 104.366 94.6499 104.366 94.6499 104.629V109.069C94.6499 109.155 94.6499 109.208 94.8255 109.245C94.9253 109.26 95.0267 109.26 95.1265 109.245H95.2271L95.089 109.609H93.1708L93.3089 109.295Z" fill="white"/>
<path d="M98.3755 109.683C98.3755 109.683 97.7864 108.329 97.1214 106.848C96.7199 105.958 96.2689 105.067 96.0677 104.691V104.579C96.0232 104.504 95.9584 104.442 95.8807 104.403C95.803 104.363 95.7157 104.345 95.6286 104.353H95.5289L95.667 103.977H96.2186C96.4108 103.988 96.6035 103.988 96.7957 103.977L98.3636 107.414C98.549 107.818 98.7002 108.238 98.8154 108.668C99.0476 107.994 99.3154 107.332 99.6177 106.686L100.533 104.705C100.631 104.49 100.711 104.268 100.772 104.04H101.336C101.516 104.05 101.696 104.05 101.876 104.04L101.725 104.416C101.574 104.416 101.349 104.416 101.123 104.956L100.333 106.649L98.9689 109.734L98.3755 109.683Z" fill="white"/>
<path d="M108.246 104.504V106.373C109.212 106.373 109.739 105.909 109.739 105.194C109.739 104.478 109.1 104.478 108.623 104.478C108.494 104.461 108.363 104.461 108.234 104.478M112.712 109.746C112.269 109.795 111.82 109.734 111.407 109.568C110.993 109.401 110.627 109.135 110.342 108.792C109.301 107.651 108.235 106.46 108.21 106.422V109.683H106.716L106.854 109.307C106.999 109.321 107.145 109.286 107.268 109.207C107.275 109.189 107.279 109.17 107.279 109.15C107.279 109.131 107.275 109.112 107.268 109.094V104.629C107.268 104.39 106.942 104.366 106.804 104.366L106.867 104.002H109.037C109.563 104.002 110.579 104.215 110.579 105.03C110.579 105.845 109.777 106.394 109.037 106.611C111.332 108.969 111.85 109.332 112.924 109.332H113.161C113.464 109.3 113.748 109.166 113.965 108.952C114.182 108.738 114.319 108.456 114.355 108.153C114.355 107.739 114.355 107.187 113.101 107.112C112.123 107.112 111.596 106.611 111.57 105.858C111.558 105.627 111.594 105.396 111.676 105.18C111.758 104.964 111.884 104.768 112.047 104.604C112.26 104.39 112.515 104.222 112.795 104.11C113.075 103.998 113.375 103.944 113.677 103.951C114.111 103.918 114.54 104.058 114.87 104.34L114.795 105.368H114.419C114.419 105.368 114.334 104.942 114.334 104.929C114.057 104.716 113.717 104.602 113.368 104.604C113.13 104.577 112.892 104.646 112.704 104.795C112.517 104.944 112.397 105.162 112.37 105.4C112.365 105.443 112.363 105.487 112.365 105.531C112.365 106.108 112.766 106.397 113.682 106.484C114.598 106.572 115.162 107.036 115.162 107.814C115.073 108.406 114.767 108.945 114.304 109.325C113.84 109.705 113.252 109.899 112.654 109.871" fill="white"/>
<path d="M71.2877 113.095C70.9027 113.079 70.521 113.173 70.1876 113.366C69.8542 113.56 69.5831 113.844 69.4062 114.187C69.2508 114.556 69.1739 114.953 69.1802 115.353C69.1382 115.763 69.2137 116.177 69.3981 116.546C69.5824 116.914 69.8679 117.223 70.2212 117.435C70.5767 117.65 70.9848 117.763 71.4003 117.761C71.972 117.742 72.5128 117.497 72.9039 117.08C73.295 116.662 73.5042 116.106 73.4856 115.535C73.4839 115.465 73.4785 115.396 73.4694 115.328C73.5051 114.933 73.423 114.536 73.2333 114.188C73.0436 113.839 72.7549 113.555 72.4037 113.371C72.0515 113.187 71.6595 113.092 71.2621 113.095M71.049 118.35C70.7204 118.377 70.3899 118.338 70.0762 118.237C69.7625 118.135 69.4719 117.973 69.221 117.759C68.9701 117.545 68.7638 117.284 68.6139 116.991C68.4639 116.697 68.3734 116.377 68.3473 116.048C68.3346 115.895 68.3363 115.741 68.3524 115.588C68.3184 115.034 68.4507 114.482 68.7324 114.004C69.014 113.526 69.4321 113.143 69.933 112.904C70.4413 112.658 70.9984 112.529 71.5631 112.528C72.2049 112.461 72.847 112.651 73.3483 113.058C73.8495 113.464 74.1688 114.053 74.2358 114.695C74.247 114.808 74.2507 114.922 74.2469 115.036C74.2937 115.866 74.0088 116.681 73.455 117.301C72.9012 117.921 72.1238 118.296 71.2937 118.343C71.2124 118.347 71.1309 118.347 71.049 118.343" fill="white"/>
<path d="M116.375 109.345H116.46C116.599 109.345 116.824 109.345 116.824 109.132V104.667C116.824 104.441 116.548 104.403 116.385 104.403H116.285L116.41 104.027H118.292L118.154 104.403C117.965 104.403 117.702 104.403 117.702 104.667V109.119C117.702 109.194 117.702 109.257 117.865 109.295C117.964 109.308 118.066 109.308 118.166 109.295H118.266L118.141 109.659H116.222L116.375 109.345Z" fill="white"/>
<path d="M125.704 109.633H124.751L124.889 109.269C124.889 109.269 125.365 109.269 125.365 109.03V107.502C125.365 107.213 125.139 106.912 124.801 106.436L124.399 105.871C123.496 104.542 123.371 104.507 122.907 104.507H121.74V109.047C121.74 109.133 121.74 109.185 121.903 109.223C122.003 109.238 122.104 109.238 122.204 109.223H122.305L122.179 109.599H120.247L120.398 109.223H120.484C120.622 109.223 120.848 109.223 120.848 109.01V104.541H119.431C119.117 104.541 118.967 104.993 118.967 104.993L118.728 104.842L119.029 104.014H123.456C124.271 104.014 124.473 104.355 124.936 105.168L125.237 105.669L125.701 106.437L125.952 106.838C126.332 106.17 126.75 105.526 127.206 104.907L127.632 104.242C127.679 104.173 127.713 104.097 127.733 104.016H128.798V104.101C128.546 104.211 128.326 104.384 128.159 104.603L127.908 104.944C127.217 105.754 126.666 106.673 126.278 107.665V109.108C126.278 109.193 126.278 109.246 126.429 109.283C126.525 109.3 126.622 109.3 126.717 109.283H126.843L126.692 109.659L125.704 109.633Z" fill="white"/>
<path d="M75.3245 117.849C75.5624 117.849 75.8258 117.849 75.8258 117.447V113.107C75.8258 112.919 75.5377 112.894 75.374 112.894H75.2486L75.3868 112.53H78.1865C78.4037 112.504 78.6236 112.548 78.814 112.656V113.396C78.814 113.396 78.4883 113.584 78.4627 113.596C78.4627 113.32 78.3374 113.044 77.5727 113.044H76.7321C76.7208 113.182 76.7208 113.32 76.7321 113.458V114.912H78.7236L78.4849 115.464H76.6946V117.609C76.6966 117.651 76.7125 117.691 76.7398 117.723C76.7672 117.755 76.8043 117.776 76.8455 117.785C76.9408 117.801 77.0383 117.801 77.1336 117.785H77.322L77.1839 118.149H75.2367L75.3245 117.849Z" fill="white"/>
<path d="M104.909 109.671H101.937L102.088 109.307C102.088 109.307 102.527 109.307 102.527 108.906V104.566C102.527 104.378 102.301 104.353 102.176 104.353H102.076L102.214 103.989H104.873C105.094 103.967 105.316 104.01 105.512 104.114C105.525 104.114 105.512 104.44 105.512 104.679V104.904L105.171 105.105C105.171 104.829 105.046 104.553 104.281 104.553H103.446C103.436 104.691 103.436 104.829 103.446 104.967V106.421H105.465L105.202 107.023H103.446V108.152C103.428 108.478 103.428 108.804 103.446 109.13H104.45C104.759 109.146 105.069 109.146 105.378 109.13V108.415L105.868 108.756V109.408C105.855 109.516 105.855 109.625 105.868 109.734H105.73L104.909 109.671Z" fill="white"/>
<path d="M87.3513 118.187C86.5738 117.322 86.0972 116.823 85.746 116.444L85.2344 115.892L84.7707 115.391C84.1688 114.726 83.6794 114.136 83.5166 113.948V118.15H82.2378L82.3759 117.786C82.5515 117.786 82.8397 117.786 82.8397 117.497V113.149C82.8397 112.961 82.6393 112.873 82.2122 112.873H82.0962L82.2471 112.509H83.3512C84.971 114.34 84.9812 114.352 84.971 114.365C84.9608 114.378 86.7017 116.221 87.1654 116.685V112.521H87.7801C87.9931 112.532 88.2065 112.532 88.4195 112.521L88.2814 112.897C88.1808 112.897 87.8424 112.897 87.8424 113.135V118.177H87.3308L87.3513 118.187Z" fill="white"/>
<path d="M98.0865 112.957C97.9577 112.937 97.8265 112.937 97.6977 112.957V114.826C97.9933 114.821 98.2859 114.766 98.5631 114.663C98.7592 114.58 98.9241 114.437 99.0345 114.254C99.1448 114.072 99.1949 113.86 99.1777 113.647C99.1777 113.158 98.8367 112.932 98.0618 112.932M101.147 118.701C100.813 118.453 100.517 118.157 100.269 117.823L99.8052 117.296L97.6849 114.939V118.2H96.193L96.3311 117.824C96.4819 117.836 96.6323 117.797 96.7574 117.711C96.77 117.679 96.77 117.643 96.7574 117.611L96.8324 114.968V113.158C96.71 113.023 96.5474 112.93 96.3686 112.894V112.518H98.5255C99.0524 112.518 100.068 112.731 100.068 113.546C100.042 113.894 99.9066 114.224 99.6813 114.49C99.456 114.756 99.1523 114.944 98.8137 115.027L98.575 115.09C99.0545 115.511 99.5099 115.959 99.9391 116.432C100.479 116.983 101.081 117.598 101.559 118.062C101.811 118.31 102.093 118.525 102.399 118.701H101.147Z" fill="white"/>
<path d="M92.2176 113.045C91.8376 113.029 91.461 113.122 91.1322 113.314C90.8034 113.505 90.536 113.786 90.3616 114.124C90.2087 114.489 90.1318 114.881 90.1357 115.277C90.0956 115.682 90.1709 116.09 90.3529 116.454C90.5348 116.818 90.8159 117.124 91.1639 117.335C91.515 117.549 91.9187 117.662 92.3301 117.66C92.61 117.651 92.8853 117.587 93.1404 117.471C93.3954 117.356 93.6252 117.191 93.8165 116.987C94.0079 116.782 94.1571 116.542 94.2556 116.28C94.3542 116.018 94.4001 115.739 94.3907 115.459C94.3891 115.39 94.3837 115.32 94.3745 115.252C94.4075 114.862 94.3252 114.471 94.1379 114.128C93.9505 113.784 93.6664 113.504 93.3208 113.321C92.973 113.137 92.5853 113.042 92.192 113.044M91.9917 118.3C91.6527 118.319 91.3133 118.272 90.9926 118.16C90.672 118.048 90.3766 117.875 90.1232 117.649C89.8699 117.423 89.6635 117.149 89.516 116.843C89.3685 116.537 89.2827 116.205 89.2635 115.866C89.256 115.749 89.256 115.632 89.2635 115.515C89.2286 114.956 89.3615 114.4 89.6453 113.917C89.9291 113.434 90.3507 113.047 90.8561 112.806C91.3741 112.554 91.9428 112.425 92.5185 112.428C92.8468 112.4 93.1774 112.437 93.4914 112.536C93.8054 112.636 94.0967 112.797 94.3486 113.009C94.6006 113.222 94.8082 113.481 94.9596 113.774C95.1111 114.067 95.2034 114.386 95.2313 114.715C95.2373 114.789 95.2399 114.863 95.2399 114.936C95.2581 115.351 95.1944 115.765 95.0525 116.155C94.9107 116.545 94.6934 116.904 94.4131 117.21C94.1327 117.516 93.7949 117.764 93.4187 117.939C93.0426 118.115 92.6356 118.214 92.221 118.232C92.1494 118.232 92.0769 118.232 92.0036 118.232" fill="white"/>
<path d="M102.777 117.798C102.928 117.798 103.078 117.798 103.078 117.572V113.032H101.661C101.347 113.032 101.209 113.471 101.209 113.484L100.971 113.333L101.284 112.518H105.912L105.827 113.434H105.576C105.564 113.311 105.521 113.194 105.451 113.093C105.416 113.059 105.375 113.033 105.329 113.016C105.284 112.998 105.236 112.99 105.187 112.992H103.932V117.532C103.932 117.618 103.932 117.671 104.107 117.708C104.207 117.722 104.308 117.722 104.408 117.708H104.509L104.383 118.072H103.467C103.183 118.055 102.898 118.055 102.614 118.072L102.777 117.798Z" fill="white"/>
<path d="M110.805 117.811H110.89C111.028 117.811 111.254 117.811 111.254 117.598V115.503H107.993V117.585C107.993 117.66 107.993 117.723 108.156 117.761C108.256 117.773 108.357 117.773 108.457 117.761H108.542L108.417 118.137H106.503L106.654 117.761H106.739C106.877 117.761 107.103 117.761 107.103 117.548L107.166 114.939L107.091 113.17C107.091 112.945 106.828 112.907 106.652 112.907H106.551L106.677 112.531H108.558L108.42 112.907C108.207 112.907 107.968 112.907 107.968 113.17V114.935H111.229V113.179C111.229 112.953 110.953 112.916 110.803 112.916H110.706L110.831 112.54H112.713L112.575 112.916C112.361 112.916 112.123 112.916 112.123 113.179V117.619C112.123 117.682 112.448 117.833 112.587 117.833H112.687L112.549 118.209H110.629L110.805 117.811Z" fill="white"/>
<path d="M132.036 115.503H133.642L133.328 114.776L133.065 114.136C132.964 113.886 132.889 113.71 132.839 113.572C132.713 113.913 132.036 115.454 132.011 115.516M124.764 118.652C124.976 118.485 125.178 118.305 125.366 118.112C125.667 117.798 126.859 116.357 127.36 115.704L127.561 115.454L127.385 115.228L127.071 114.751C126.946 114.538 126.795 114.312 126.607 114.024C125.918 113.02 125.805 112.92 125.353 112.92L125.479 112.556H126.698C126.698 112.556 127.563 113.885 127.952 114.512L128.127 114.789C128.129 114.749 128.14 114.71 128.16 114.675C128.18 114.64 128.207 114.611 128.24 114.588L128.993 113.61L129.62 112.795C129.668 112.727 129.702 112.65 129.721 112.569H130.762C130.545 112.721 130.348 112.898 130.173 113.096L129.784 113.623L128.63 115.166L128.53 115.304V115.429L128.63 115.567L130.06 117.624C130.145 117.75 130.186 117.8 130.211 117.8C130.237 117.8 130.211 117.8 130.286 117.725L131.277 115.594L132.631 112.534H133.246C133.246 112.534 133.534 113.311 134.184 114.767C134.612 115.762 135.094 116.733 135.626 117.677C135.68 117.761 135.755 117.83 135.842 117.878C135.93 117.926 136.028 117.952 136.128 117.953V116.861H136.529C136.529 116.861 136.615 117.313 136.615 117.325C136.898 117.546 137.246 117.666 137.605 117.666C137.76 117.675 137.916 117.65 138.061 117.594C138.206 117.538 138.337 117.452 138.446 117.341C138.599 117.168 138.68 116.944 138.672 116.713C138.672 116.124 138.233 115.81 137.279 115.722C136.326 115.635 135.749 115.145 135.749 114.358C135.757 113.983 135.879 113.62 136.1 113.317C136.319 113.048 136.597 112.833 136.912 112.69C137.228 112.546 137.572 112.477 137.919 112.489C138.171 112.487 138.422 112.529 138.659 112.615C138.837 112.674 139 112.772 139.135 112.903L139.06 113.957H138.672L138.586 113.493C138.297 113.286 137.951 113.172 137.596 113.167C137.472 113.152 137.345 113.161 137.225 113.195C137.104 113.228 136.991 113.285 136.893 113.362C136.794 113.439 136.711 113.535 136.65 113.644C136.588 113.753 136.549 113.873 136.534 113.998V114.032C136.534 114.709 136.973 115.01 137.913 115.098C138.853 115.186 139.443 115.675 139.443 116.462C139.436 116.837 139.313 117.201 139.092 117.503C138.873 117.772 138.595 117.986 138.279 118.13C137.964 118.273 137.62 118.342 137.274 118.331C137.021 118.334 136.771 118.291 136.534 118.206H136.257V118.307H135.417C135.229 118.293 135.04 118.293 134.852 118.307L133.862 116.2H131.685L131.497 116.626L131.058 117.579C131.039 117.612 131.029 117.649 131.029 117.686C131.029 117.723 131.039 117.76 131.058 117.792C131.143 117.918 131.422 117.943 131.547 117.943L131.472 118.307H129.44C129.127 117.831 128.65 117.128 128.299 116.614L128.06 116.25L127.985 116.125L127.834 116.25L127.207 117.052C126.705 117.692 126.078 118.482 126.04 118.545C126.004 118.625 125.948 118.694 125.878 118.746H124.762L124.764 118.652Z" fill="white"/>
<path d="M117.451 117.823C117.602 117.823 117.752 117.823 117.752 117.597V113.057H116.347C116.033 113.057 115.883 113.496 115.883 113.509L115.645 113.358L115.946 112.543H120.573L120.473 113.459H120.222C120.213 113.342 120.174 113.23 120.109 113.133C120.072 113.099 120.029 113.072 119.981 113.055C119.934 113.037 119.884 113.03 119.833 113.032H118.578V117.572C118.578 117.658 118.578 117.711 118.754 117.748C118.854 117.762 118.955 117.762 119.055 117.748H119.155L119.03 118.124H118.114C117.83 118.107 117.546 118.107 117.262 118.124L117.451 117.823Z" fill="white"/>
<path d="M124.387 118.2H121.038L121.176 117.836C121.251 117.843 121.327 117.843 121.402 117.836C121.469 117.806 121.525 117.756 121.563 117.693C121.601 117.631 121.619 117.558 121.615 117.485V113.17C121.615 112.982 121.327 112.957 121.163 112.957H121.038L121.176 112.593H123.935C124.424 112.593 124.562 112.719 124.562 112.719V113.459C124.562 113.459 124.236 113.647 124.221 113.659C124.221 113.383 124.096 113.107 123.331 113.107H122.49V114.939H124.66L124.41 115.541H122.503V116.66C122.483 116.986 122.483 117.312 122.503 117.638H123.432C123.674 117.656 123.917 117.656 124.159 117.638V116.923L124.648 117.264V117.916C124.634 118.024 124.634 118.134 124.648 118.242H124.209L124.387 118.2Z" fill="white"/>
<path d="M141.418 113.434C141.51 113.428 141.597 113.387 141.66 113.32C141.724 113.252 141.759 113.163 141.759 113.07C141.759 112.806 141.608 112.681 141.295 112.681H140.768V114.073H140.919V113.448H141.283L141.685 114.063H141.86L141.418 113.434ZM141.192 113.296H140.916V112.794H141.28C141.38 112.794 141.605 112.794 141.605 113.045C141.605 113.296 141.393 113.296 141.192 113.296Z" fill="white"/>
<path d="M141.205 112.192C140.974 112.192 140.748 112.26 140.557 112.388C140.365 112.516 140.215 112.699 140.127 112.912C140.039 113.125 140.016 113.359 140.061 113.586C140.106 113.812 140.217 114.02 140.38 114.183C140.543 114.346 140.751 114.457 140.977 114.502C141.203 114.547 141.438 114.524 141.651 114.436C141.864 114.347 142.046 114.198 142.174 114.006C142.302 113.814 142.371 113.589 142.371 113.358C142.371 113.205 142.341 113.053 142.282 112.912C142.224 112.77 142.138 112.641 142.03 112.533C141.921 112.425 141.793 112.339 141.651 112.28C141.509 112.222 141.358 112.192 141.205 112.192ZM141.205 114.424C140.925 114.424 140.657 114.313 140.459 114.115C140.262 113.918 140.151 113.649 140.151 113.37V113.357C140.153 113.15 140.217 112.948 140.333 112.776C140.45 112.605 140.615 112.472 140.807 112.393C140.999 112.315 141.21 112.295 141.413 112.336C141.616 112.377 141.803 112.477 141.95 112.624C142.096 112.771 142.196 112.957 142.237 113.161C142.278 113.364 142.259 113.575 142.18 113.767C142.102 113.959 141.969 114.124 141.797 114.24C141.626 114.357 141.424 114.421 141.217 114.423L141.205 114.424Z" fill="white"/>
<path d="M125.653 61.7465L122.681 69.9494H127.225L128.341 66.8016H132.781V89.3018L130.26 89.3146L128.428 94.3689L140.933 94.3816L142.801 89.3146L139.306 89.3018V66.8007H144.524L144.511 69.9485L147.658 69.9358L150.63 61.7328L125.66 61.7456" fill="white"/>
<path d="M119.796 66.7879V94.3816H115.946L96.8495 74.2388V89.2899H100.386L98.5545 94.3825H86.9881L88.8322 89.2899H90.8135V66.8135H86.5994L88.4306 61.7337H95.5169C95.5169 61.7337 109.212 76.0574 113.965 81.0742V66.8357H110.528L112.334 61.7431H124.173L122.342 66.8357H119.834" fill="white"/>
<path d="M68.0251 106.033C67.5988 105.973 67.1642 106.034 66.771 106.209C66.4614 105.213 65.9572 104.288 65.2876 103.487L68.0089 105.996C68.2427 105.444 68.2984 104.833 68.168 104.249C68.0376 103.664 67.7277 103.135 67.2816 102.735C64.8613 100.49 60.249 96.2625 60.249 96.288C61.7215 99.6056 62.1586 103.29 61.5031 106.86L63.8902 107.312L64.1784 107.789C65.2575 107.901 66.3163 108.159 67.326 108.556C67.326 108.556 68.2638 109.208 67.2629 110.111C68.1461 109.932 68.9719 109.539 69.6679 108.966C69.6679 108.966 70.4582 108.289 69.5298 107.336L68.1376 106.082" fill="white"/>
<path d="M55.185 91.458L21.0569 59.6141C20.5887 59.1498 20.2507 58.5705 20.0768 57.9344C19.9029 57.2983 19.8993 56.6277 20.0663 55.9897L17.2699 62.1353C17.0157 62.8113 17.0018 63.5542 17.2304 64.2393C17.4591 64.9244 17.9164 65.51 18.5257 65.8978L45.7141 87.9726V88.8627L19.3783 68.6824C19.0229 68.3611 18.7472 67.9614 18.5731 67.5151C18.3989 67.0688 18.331 66.5881 18.3748 66.111L16.4054 70.0329C15.477 72.2403 17.7601 73.6454 18.7133 74.296C19.6664 74.9465 45.8658 93.1846 45.8658 93.1846L46.0918 94.2759C46.0918 94.2759 20.6937 77.3901 19.7525 76.8103C19.4073 76.5396 19.1324 76.1896 18.9512 75.7901C18.77 75.3905 18.6878 74.9532 18.7116 74.5151L16.8684 78.5036C16.0909 80.1235 18.3109 81.2507 19.2887 81.8398C19.8659 82.1911 34.0752 90.6216 45.7763 97.6181H30.5764C29.5357 97.7309 28.4868 97.4972 27.5925 96.9531L29.6616 98.8723C30.3004 99.6837 31.233 100.211 32.2576 100.34H37.8639L38.9679 100.816L34.0769 101.192C33.1976 101.334 32.2977 101.127 31.5687 100.615L33.7384 102.735C33.9969 103.045 34.3239 103.292 34.6937 103.454C35.0636 103.617 35.4662 103.692 35.8698 103.672C36.9108 103.587 43.0439 102.568 43.0439 102.568L44.0218 103.007L37.5868 104.418C36.7272 104.61 35.8266 104.456 35.0786 103.991L37.0975 105.961C37.9381 106.763 38.6781 107.215 41.3363 106.525C42.39 106.224 47.6067 104.569 47.6067 104.569L50.9802 106.036C53.0231 108.876 55.5743 111.312 58.5047 113.222C58.2774 113.514 58.1437 113.868 58.1213 114.238C58.0989 114.607 58.1889 114.975 58.3794 115.292C58.6872 114.649 59.1797 114.112 59.7939 113.75C60.4082 113.388 61.1163 113.218 61.828 113.26C62.8561 113.411 62.5807 114.665 62.6183 114.615C63.2577 113.812 63.7717 112.846 63.1298 112.019C62.4878 111.191 60.3582 111.88 60.3582 111.88L58.4144 108.331L61.0479 106.826C62.4904 97.6701 55.1534 91.4495 55.1534 91.4495" fill="white"/>
<path d="M75.2989 61.7345L73.4174 66.8144H76.5905V81.5644C76.5905 84.274 76.1012 85.7916 74.7721 87.1336C73.506 88.277 71.8499 88.8918 70.1445 88.8516C68.1578 88.9145 66.2269 88.1887 64.7735 86.8327C63.5194 85.5785 62.9303 83.5842 62.9303 80.6496V61.7345H53.7271L51.86 66.7513H55.7817V80.9991C54.7911 79.745 53.8882 78.7542 53.4117 78.1855L37.1111 59.8776C36.7128 59.5445 36.4202 59.1028 36.2688 58.6061C36.1174 58.1095 36.1138 57.5796 36.2586 57.081L34.4154 61.2204C34.0019 62.3621 34.7666 63.1021 35.3438 63.7288C35.9209 64.3554 52.5233 81.8526 52.5233 81.8526L52.4108 82.8058L36.6584 67.065C35.406 65.8108 35.747 64.78 35.7931 64.6445L34.0999 68.407C33.7112 69.5862 34.9277 70.3638 35.7683 71.1788C36.6089 71.9939 54.2045 88.4373 55.6325 89.7418C57.569 91.5791 59.1209 93.7832 60.1979 96.2258C60.4522 94.9169 60.5365 93.5806 60.4485 92.2501C63.0038 94.0868 66.0833 95.0502 69.2297 94.9972C77.3817 94.9972 82.6487 89.729 82.6487 81.5772V66.7513H84.9685L86.7869 61.6714L75.2989 61.7345Z" fill="white"/>
<path d="M148.915 69.4958C148.957 69.4927 148.997 69.4732 149.025 69.4413C149.053 69.4094 149.068 69.3678 149.066 69.3253C149.066 69.2 148.991 69.1497 148.853 69.1497H148.615V69.7891H148.678V69.4958H148.803L148.992 69.784H149.067L148.915 69.4958ZM148.814 69.4958H148.689V69.2699H148.802C148.802 69.2699 148.952 69.2699 148.952 69.3824C148.952 69.495 148.902 69.4455 148.802 69.4455L148.814 69.4958Z" fill="white"/>
<path d="M148.802 68.9331C148.696 68.9331 148.591 68.9647 148.503 69.024C148.414 69.0833 148.345 69.1676 148.304 69.2663C148.263 69.3649 148.252 69.4734 148.273 69.5781C148.294 69.6828 148.345 69.7789 148.421 69.8544C148.496 69.9299 148.592 69.9813 148.697 70.0021C148.802 70.0229 148.91 70.0123 149.009 69.9714C149.108 69.9306 149.192 69.8614 149.251 69.7726C149.31 69.6839 149.342 69.5795 149.342 69.4728C149.342 69.4019 149.328 69.3317 149.301 69.2663C149.274 69.2008 149.234 69.1413 149.184 69.0912C149.134 69.0411 149.074 69.0013 149.009 68.9742C148.943 68.9471 148.873 68.9331 148.802 68.9331ZM148.802 69.9613C148.74 69.963 148.678 69.9524 148.619 69.93C148.561 69.9076 148.507 69.8739 148.462 69.8308C148.416 69.7878 148.38 69.7362 148.354 69.679C148.329 69.6218 148.315 69.5601 148.313 69.4975V69.4728C148.301 69.4085 148.302 69.3424 148.315 69.2784C148.329 69.2144 148.356 69.1538 148.393 69.1003C148.431 69.0467 148.479 69.0012 148.534 68.9664C148.59 68.9317 148.652 68.9085 148.716 68.8981C148.781 68.8877 148.847 68.8904 148.91 68.906C148.974 68.9216 149.034 68.9498 149.086 68.9889C149.139 69.028 149.183 69.0773 149.216 69.1337C149.249 69.1902 149.27 69.2527 149.279 69.3176C149.288 69.369 149.288 69.4214 149.279 69.4728C149.281 69.5354 149.27 69.5977 149.248 69.6562C149.225 69.7147 149.192 69.7682 149.149 69.8136C149.105 69.859 149.054 69.8956 148.997 69.9211C148.939 69.9466 148.878 69.9605 148.815 69.9622L148.802 69.9613Z" fill="white"/>
</g>
<defs>
<clipPath id="clip0_69_80">
<rect width="170" height="170" fill="white"/>
</clipPath>
</defs>
</svg>
