<svg width="48" height="64" viewBox="0 0 48 64" fill="none" xmlns="http://www.w3.org/2000/svg">
<g clip-path="url(#clip0_29_225)">
<path d="M24.0004 8C28.7473 8 33.3875 9.4076 37.3344 12.0448C41.2812 14.682 44.3574 18.4304 46.174 22.8159C47.9905 27.2014 48.4658 32.0271 47.5397 36.6827C46.6137 41.3383 44.3278 45.6148 40.9713 48.9713C37.6148 52.3278 33.3383 54.6136 28.6827 55.5397C24.0271 56.4658 19.2014 55.9905 14.8159 54.174C10.4304 52.3574 6.68201 49.2812 4.0448 45.3344C1.4076 41.3875 0 36.7473 0 32.0004C0 25.6351 2.52861 19.5305 7.02957 15.0296C11.5305 10.5286 17.6351 8 24.0004 8Z" fill="#FF4155"/>
<path d="M32.4918 31.4388C33.5642 31.4388 34.4336 30.5694 34.4336 29.497C34.4336 28.4245 33.5642 27.5551 32.4918 27.5551C31.4193 27.5551 30.5499 28.4245 30.5499 29.497C30.5499 30.5694 31.4193 31.4388 32.4918 31.4388Z" fill="#F9BA8F"/>
<path d="M15.6605 31.4388C16.7329 31.4388 17.6023 30.5694 17.6023 29.497C17.6023 28.4245 16.7329 27.5551 15.6605 27.5551C14.588 27.5551 13.7186 28.4245 13.7186 29.497C13.7186 30.5694 14.588 31.4388 15.6605 31.4388Z" fill="#F9BA8F"/>
<path d="M23.9686 46.392L19.3431 40.8396V35.2872H28.5968V40.8396L23.9686 46.392Z" fill="#FCAD6D"/>
<path d="M32.2985 24.1824C32.2985 17.1494 15.6413 19.5569 15.6413 24.1824V30.6603C15.6413 32.8692 16.5188 34.9876 18.0807 36.5495C19.6426 38.1115 21.761 38.9889 23.9699 38.9889C26.1788 38.9889 28.2972 38.1115 29.8591 36.5495C31.421 34.9876 32.2985 32.8692 32.2985 30.6603V24.1824Z" fill="#F9BA8F"/>
<path d="M23.9699 15.8538C18.3254 15.8538 14.7162 20.3882 14.7162 26.0331V28.1595L16.5668 29.7326V25.1071L27.6716 21.4053L31.3734 25.1071V29.7326L33.224 28.1595V26.0331C33.224 22.3313 32.2985 18.63 27.6716 17.7045L26.7461 15.8538H23.9699Z" fill="#35355E"/>
<mask id="mask0_29_225" style="mask-type:luminance" maskUnits="userSpaceOnUse" x="0" y="8" width="48" height="48">
<path d="M24 56C37.2548 56 48 45.2548 48 32C48 18.7452 37.2548 8 24 8C10.7452 8 0 18.7452 0 32C0 45.2548 10.7452 56 24 56Z" fill="white"/>
</mask>
<g mask="url(#mask0_29_225)">
<path d="M28.5972 40.8396C27.1383 41.4722 25.5616 41.7876 23.9717 41.7651C22.3806 41.7881 20.8029 41.4726 19.3431 40.8396C19.3431 40.8396 9.16382 42.6902 9.16382 52.8695L23.7897 57.1572L38.7764 52.8695C38.7764 42.6902 28.5972 40.8396 28.5972 40.8396Z" fill="#FFF5EE"/>
</g>
</g>
<defs>
<clipPath id="clip0_29_225">
<rect width="48" height="48" fill="white" transform="translate(0 8)"/>
</clipPath>
</defs>
</svg>
